<?xml version="1.0" encoding="UTF-8"?>
<svg xmlns="http://www.w3.org/2000/svg" width="10cm" height="10cm" viewBox="0 0 1300 1281" preserveAspectRatio="xMidYMid meet">
  <rect width="100%" height="100%" fill="#fff" />
  <path d="M 731,721 729,724 724,753 715,778 716,780 721,774 730,753 732,743 Z" fill="none" stroke="#000" stroke-width="1" stroke-linejoin="miter" stroke-linecap="round" />
<path d="M 483,685 480,695 480,714 484,729 494,748 515,773 491,727 486,710 Z" fill="none" stroke="#000" stroke-width="1" stroke-linejoin="miter" stroke-linecap="round" />
<path d="M 570,679 563,696 536,728 528,744 528,756 538,747 542,748 539,776 544,791 545,760 554,737 534,748 532,745 565,704 571,688 Z" fill="none" stroke="#000" stroke-width="1" stroke-linejoin="miter" stroke-linecap="round" />
<path d="M 733,593 788,686 832,778 819,731 791,670 761,624 Z" fill="none" stroke="#000" stroke-width="1" stroke-linejoin="miter" stroke-linecap="round" />
<path d="M 721,587 727,637 712,621 698,676 694,634 684,689 676,700 672,671 670,691 662,686 647,726 664,700 664,721 710,666 718,639 720,660 727,654 734,614 Z" fill="none" stroke="#000" stroke-width="1" stroke-linejoin="miter" stroke-linecap="round" />
<path d="M 404,595 339,839 400,929 396,759 438,984 304,1053 563,1107 910,981 998,789 865,947 788,781 711,921 825,790 845,963 669,1023 736,904 638,1053 708,779 618,1075 505,1085 580,771 553,950 473,752 524,1022 379,1076 449,973 Z" fill="none" stroke="#000" stroke-width="1" stroke-linejoin="miter" stroke-linecap="round" />
<path d="M 671,1036 699,1009 743,1005 778,1017 792,1041 776,1060 755,1062 747,1015 747,1058 731,1065 717,1057 714,1019 709,1062 682,1058 672,1047 Z" fill="none" stroke="#000" stroke-width="1" stroke-linejoin="miter" stroke-linecap="round" />
<path d="M 336,1000 338,1002 328,1015 324,1024 321,1037 321,1047 319,1049 310,1049 306,1044 306,1034 309,1023 319,1010 Z" fill="none" stroke="#000" stroke-width="1" stroke-linejoin="miter" stroke-linecap="round" />
<path d="M 537,932 550,953 553,964 545,997 533,1018 531,1015 536,994 535,934 Z" fill="none" stroke="#000" stroke-width="1" stroke-linejoin="miter" stroke-linecap="round" />
<path d="M 956,798 943,828 932,920 907,970 854,1015 795,1024 893,927 926,829 Z" fill="none" stroke="#000" stroke-width="1" stroke-linejoin="miter" stroke-linecap="round" />
<path d="M 719,572 726,584 731,589 756,597 762,597 764,595 762,591 735,577 721,571 Z" fill="none" stroke="#000" stroke-width="1" stroke-linejoin="miter" stroke-linecap="round" />
<path d="M 661,568 651,594 639,617 627,634 626,639 639,625 652,603 659,584 Z" fill="none" stroke="#000" stroke-width="1" stroke-linejoin="miter" stroke-linecap="round" />
<path d="M 702,525 701,529 704,539 716,559 726,568 744,577 745,576 737,570 719,551 Z" fill="none" stroke="#000" stroke-width="1" stroke-linejoin="miter" stroke-linecap="round" />
<path d="M 480,447 470,459 469,471 481,480 484,492 498,504 500,515 505,502 517,498 524,490 535,490 543,484 544,466 532,454 507,446 Z" fill="none" stroke="#000" stroke-width="1" stroke-linejoin="miter" stroke-linecap="round" />
<path d="M 480,455 486,452 503,452 523,457 531,461 537,467 539,476 537,480 533,482 531,480 531,471 521,472 484,461 Z" fill="none" stroke="#000" stroke-width="1" stroke-linejoin="miter" stroke-linecap="round" />
<path d="M 615,364 609,370 603,384 604,388 608,383 614,396 612,399 606,398 608,402 624,408 638,408 653,402 663,394 651,373 640,363 628,360 Z" fill="none" stroke="#000" stroke-width="1" stroke-linejoin="miter" stroke-linecap="round" />
<path d="M 625,368 630,368 631,369 632,369 635,372 635,377 630,382 624,382 620,378 620,377 619,376 619,375 620,374 620,372 623,369 624,369 Z" fill="none" stroke="#000" stroke-width="1" stroke-linejoin="miter" stroke-linecap="round" />
<path d="M 782,350 776,370 770,381 761,393 762,395 772,386 780,372 783,360 783,351 Z" fill="none" stroke="#000" stroke-width="1" stroke-linejoin="miter" stroke-linecap="round" />
<path d="M 547,342 531,375 510,402 510,405 528,386 540,368 547,351 Z" fill="none" stroke="#000" stroke-width="1" stroke-linejoin="miter" stroke-linecap="round" />
<path d="M 528,326 529,342 527,344 521,336 515,333 503,333 489,340 474,354 479,357 487,374 502,380 512,379 520,374 527,356 531,354 533,348 533,337 Z" fill="none" stroke="#000" stroke-width="1" stroke-linejoin="miter" stroke-linecap="round" />
<path d="M 505,341 508,342 512,346 512,350 511,351 511,352 509,354 508,354 507,355 502,355 501,354 500,354 497,351 497,347 498,346 498,345 500,343 501,343 502,342 504,342 Z" fill="none" stroke="#000" stroke-width="1" stroke-linejoin="miter" stroke-linecap="round" />
<path d="M 411,317 407,381 393,419 405,404 413,384 414,348 Z" fill="none" stroke="#000" stroke-width="1" stroke-linejoin="miter" stroke-linecap="round" />
<path d="M 602,329 603,331 620,314 631,313 646,325 663,353 666,354 653,323 637,307 627,305 618,308 611,314 Z" fill="none" stroke="#000" stroke-width="1" stroke-linejoin="miter" stroke-linecap="round" />
<path d="M 550,305 547,298 542,293 531,292 514,300 496,316 497,317 509,309 532,299 540,300 549,310 Z" fill="none" stroke="#000" stroke-width="1" stroke-linejoin="miter" stroke-linecap="round" />
<path d="M 728,290 751,326 753,344 730,388 724,411 725,422 735,390 761,342 754,317 Z" fill="none" stroke="#000" stroke-width="1" stroke-linejoin="miter" stroke-linecap="round" />
<path d="M 493,246 474,255 457,270 441,294 434,319 443,299 456,280 Z" fill="none" stroke="#000" stroke-width="1" stroke-linejoin="miter" stroke-linecap="round" />
<path d="M 844,352 647,194 384,243 357,351 399,247 635,218 849,385 738,516 711,306 688,462 514,563 472,532 618,505 467,519 499,268 389,434 383,290 379,441 454,366 390,617 461,525 583,564 698,458 666,543 703,475 744,536 Z" fill="none" stroke="#000" stroke-width="1" stroke-linejoin="miter" stroke-linecap="round" />
</svg>